<?xml version="1.0" standalone="no"?>
<!DOCTYPE svg PUBLIC "-//W3C//DTD SVG 20010904//EN"
 "http://www.w3.org/TR/2001/REC-SVG-20010904/DTD/svg10.dtd">
<svg version="1.0" xmlns="http://www.w3.org/2000/svg"
 width="522.000000pt" height="522.000000pt" viewBox="0 0 522.000000 522.000000"
 preserveAspectRatio="xMidYMid meet">
<metadata>
Created by potrace 1.11, written by Peter Selinger 2001-2013
</metadata>
<g transform="translate(0.000000,522.000000) scale(0.100000,-0.100000)"
fill="#000000" stroke="none">
<path d="M2417 5210 c-639 -53 -1200 -312 -1647 -760 -215 -214 -379 -444
-506 -707 -30 -62 -58 -113 -63 -113 -5 0 -11 -17 -14 -37 -2 -21 -21 -83 -40
-139 -274 -774 -149 -1657 330 -2342 454 -648 1168 -1047 1973 -1103 272 -18
576 13 845 86 173 48 297 95 471 181 662 324 1162 931 1359 1649 141 516 116
1085 -70 1591 -87 238 -256 534 -415 730 -424 522 -1034 864 -1690 948 -151
20 -398 27 -533 16z m533 -185 c58 -8 152 -27 210 -40 106 -26 333 -98 359
-114 10 -7 -7 -20 -67 -50 l-82 -41 -180 0 c-166 0 -182 -2 -200 -20 -34 -34
-200 -376 -200 -413 0 -51 29 -69 192 -123 l148 -48 175 43 174 43 123 -41
c99 -33 536 -131 584 -131 6 0 62 33 124 74 l112 74 32 -37 c90 -102 226 -290
226 -311 0 -4 -96 -40 -212 -79 l-213 -71 -210 35 c-115 19 -220 37 -232 40
-15 4 -49 45 -102 123 -43 64 -86 124 -96 132 -15 13 -66 15 -311 15 l-294 0
-150 -150 c-83 -82 -153 -159 -156 -171 -8 -32 84 -654 100 -679 17 -26 635
-295 676 -295 14 0 94 18 179 39 l154 40 91 -61 c50 -34 94 -66 98 -72 4 -6 8
-83 8 -171 l0 -160 170 -336 170 -337 0 -179 c0 -208 -8 -186 122 -318 l89
-91 -79 -94 c-683 -818 -1819 -1100 -2798 -695 -312 129 -586 316 -824 561
-372 384 -599 859 -672 1404 -18 141 -16 480 6 620 18 126 74 367 85 374 4 3
24 -47 45 -110 20 -62 45 -121 53 -130 9 -9 111 -79 227 -156 116 -78 213
-142 215 -144 2 -2 -23 -33 -57 -68 l-62 -64 0 -156 0 -156 91 -183 c50 -100
100 -192 111 -203 15 -17 59 -30 214 -60 l194 -38 0 -411 0 -410 92 -229 c50
-126 99 -237 109 -247 20 -20 282 -109 322 -109 16 0 38 10 52 25 25 24 25 24
25 237 l0 213 161 120 c89 66 168 129 175 140 10 14 14 54 14 145 l0 125 170
170 170 170 45 224 c48 240 52 276 31 303 -23 31 -65 38 -219 38 l-152 1 -119
200 c-66 110 -128 207 -140 215 -17 11 -74 14 -311 14 l-290 0 -80 161 c-82
165 -102 189 -156 189 -13 0 -50 -28 -95 -72 l-74 -71 0 88 0 88 -85 86 -85
87 0 80 0 80 273 38 272 38 237 141 237 141 128 213 128 213 123 41 c68 23
131 49 140 59 10 11 39 86 66 168 53 159 54 190 13 216 -12 8 -137 33 -277 56
-229 38 -260 45 -303 73 -59 37 -59 37 95 77 125 32 259 56 388 70 116 12 432
4 560 -15z m-1174 -249 l112 -73 205 -33 c113 -18 211 -36 217 -40 10 -6 8
-21 -7 -66 l-19 -59 -117 -40 c-64 -22 -125 -48 -134 -58 -10 -10 -74 -111
-143 -225 l-125 -206 -202 -122 -203 -121 -307 -43 c-274 -39 -310 -46 -330
-67 -22 -21 -23 -29 -23 -184 l0 -162 85 -86 85 -87 0 -77 c0 -42 -2 -77 -5
-77 -3 0 -85 53 -183 119 l-177 118 -63 189 c-34 104 -62 197 -62 207 0 25 81
182 157 306 103 166 206 294 358 446 144 144 265 242 421 340 94 59 317 175
337 175 7 0 62 -33 123 -74z m2079 -72 c118 -70 292 -199 390 -287 l59 -54
-73 -48 -73 -49 -196 39 c-110 21 -254 57 -327 82 -71 23 -142 43 -158 43 -15
0 -99 -18 -186 -40 l-159 -40 -58 20 c-33 11 -65 22 -72 25 -8 3 4 36 40 109
l52 104 165 4 166 4 145 77 c80 42 152 77 160 77 9 0 65 -30 125 -66z m-255
-904 c44 -65 88 -124 99 -129 10 -6 143 -31 295 -57 l276 -46 242 81 c134 45
248 81 254 81 28 0 160 -334 209 -530 139 -554 78 -1138 -175 -1655 -38 -77
-85 -166 -106 -198 l-37 -59 -68 68 -69 68 0 168 0 168 -175 350 -175 350 0
178 c0 127 -4 183 -12 194 -24 30 -303 208 -326 208 -13 0 -95 -18 -184 -40
l-161 -41 -261 112 c-144 61 -265 115 -270 120 -5 5 -26 122 -46 261 l-37 253
106 108 106 107 217 0 218 0 80 -120z m-2260 -1165 c21 -19 38 -20 319 -23
l297 -3 114 -192 c63 -106 125 -202 137 -214 21 -22 30 -23 156 -23 73 0 136
-2 139 -5 3 -3 -8 -72 -24 -153 l-30 -147 -168 -170 c-92 -93 -173 -180 -179
-192 -6 -12 -11 -73 -11 -137 l0 -115 -162 -123 c-90 -68 -168 -134 -175 -148
-9 -17 -13 -78 -13 -188 0 -127 -3 -162 -12 -158 -7 2 -32 10 -55 16 l-42 12
-73 182 -73 181 -5 457 c-5 445 -6 458 -26 478 -15 16 -70 31 -230 63 l-209
43 -72 139 -72 140 -1 110 0 110 162 162 163 163 61 -122 c34 -68 72 -132 84
-143z"/>
</g>
</svg>
